<svg width="112" height="112" viewBox="0 0 112 112" fill="none" xmlns="http://www.w3.org/2000/svg">
<path fill-rule="evenodd" clip-rule="evenodd" d="M43.9911 21.2708C26.4211 32.5548 16.6607 45.6868 14.7077 60.6738C11.6674 84.0002 32.5274 95.4172 43.0974 85.1598C53.6674 74.9002 47.3324 61.8802 39.6791 58.3195C32.0257 54.7612 27.3451 56.0002 28.1617 51.2425C28.9784 46.4872 39.8657 33.2992 49.4324 27.1578C49.7714 26.8696 49.9877 26.4628 50.0371 26.0206C50.0865 25.5783 49.9654 25.1338 49.6984 24.7778L47.3324 21.7002C46.3057 20.3655 45.3211 20.4168 43.9911 21.2685M90.2517 21.2708C72.6817 32.5548 62.9191 45.6892 60.9684 60.6738C57.9281 84.0002 78.7881 95.4172 89.3581 85.1598C99.9281 74.9002 93.5931 61.8802 85.9374 58.3195C78.2841 54.7612 73.6034 56.0002 74.4201 51.2425C75.2367 46.4872 86.1264 33.2992 95.6931 27.1578C96.0317 26.8692 96.2476 26.4623 96.2965 26.0201C96.3455 25.5778 96.224 25.1336 95.9567 24.7778L93.5907 21.7002C92.5641 20.3655 91.5794 20.4168 90.2517 21.2685" fill="#04ABE2"/>
</svg>
