<svg width="128" height="106" viewBox="0 0 128 106" fill="none" xmlns="http://www.w3.org/2000/svg">
<path d="M94.3176 47.6595L94.1856 32.2178L80.4722 25.1063L95.1522 20.2014L97.6672 5.00457L106.813 17.3988L122.119 15.0969L113.135 27.6635L120.035 41.4787L105.312 36.8124L94.3176 47.6595Z" fill="#F8D830"/>
<path d="M1 76.2176L29.9169 100.616C31.4542 101.913 33.7291 100.385 33.1093 98.4713L13.6964 38.5447C12.7812 35.7195 16.0878 33.4243 18.4146 35.2697L70.6256 76.6785C71.3532 77.2555 72.4059 76.6156 72.2286 75.7041L65.5148 41.1758C65.3843 40.5046 65.9508 39.9033 66.6286 39.9937L81.3115 41.9514" stroke="#04ABE2" stroke-width="3"/>
<path d="M81.3137 40.8805L70.6055 33.3848L98.4468 31.2432L80.2428 50.5179L81.3137 40.8805Z" stroke="#04ABE2" stroke-width="3"/>
</svg>
